# xmcd
#
# Track frame offsets:
#       150
#       17175
#       35250
#       45975
#       60825
#       73425
#       89325
#       106725
#       119925
#       134100
#       148425
#       160200
#       179325
#       194850
#       210375
#       222750
#
# Disc length: 3159 seconds
#
# Revision: 2
# Processed by: cddbd v1.5PL3 Copyright (c) Steve Scherf et al.
# Submitted via: CD-DA_X-Tractor v0.24
#
DISCID=fb0c5510
DTITLE=Geoff Evans - I Wouldn't Change A Thing
DYEAR=2004
DGENRE=
TTITLE0=I Wouldn't Change A Thing
TTITLE1=Farming Families
TTITLE2=Tennessee Waltz
TTITLE3=Tropical Depression
TTITLE4=Crazy
TTITLE5=The Gambler
TTITLE6=Walking The Floor Over You
TTITLE7=Blue Eyes Crying In The Rain
TTITLE8=I'll Be Your Baby Tonight
TTITLE9=Who Says You Can't Have It All
TTITLE10=Up To My Ears In Tears
TTITLE11=Time Can Change Most Everything
TTITLE12=Livin' On Love
TTITLE13=Only An Illusion
TTITLE14=I'm Gonna Sit Right Down...
TTITLE15=The Last Farewell
EXTD=
EXTT0=
EXTT1=
EXTT2=
EXTT3=
EXTT4=
EXTT5=
EXTT6=
EXTT7=
EXTT8=
EXTT9=
EXTT10=
EXTT11=
EXTT12=
EXTT13=
EXTT14=
EXTT15=
PLAYORDER=
